<?xml version="1.0" standalone="no"?><!DOCTYPE svg PUBLIC "-//W3C//DTD SVG 1.1//EN" "http://www.w3.org/Graphics/SVG/1.1/DTD/svg11.dtd">
<svg
  viewBox="0 0 240 240"
  version="1.1"
  xmlns="http://www.w3.org/2000/svg"
  xmlns:xlink="http://www.w3.org/1999/xlink"
  width="300"
  height="300"
>
  <path
    d="M218 94.5 c-3.5 6.6-7.1 13.1-10.3 19.9-7.1 15-14 30-21.1 45-0.5 1.1-1.5 2-2.1 3.1-2.4 4.8-3.8 12.7-7.3 13.8-8.6 2.6-18.1 2.5-27.3 2.3-1.9 0-4.2-4.9-5.4-7.9-9.9-25.1-19.5-50.4-29.3-75.6-3.1-7.9-6.5-15.7-9.7-23.5l-3 0.6v27.2c0 25.6-0.2 51.3 0.2 76.9 0.1 7.2-2.7 9.5-9.3 8.6-5.1-0.6-11.2 0.2-14.9-2.4-3.8-2.7-7.2-8.7-7.3-13.3-0.6-36.6-0.6-73.2-0.3-109.7 0.1-14 9.3-20.6 22.9-17.4 7.5 1.8 14.7 5 22.3 5.9 13.6 1.6 17 11 19.7 22 1.6 6.3 4.7 12.2 7.1 18.2 6.5 16.8 12.9 33.7 19.4 50.5 0.7 1.7 2 3.2 4.1 6.6 4.1-8.1 7.7-14.6 10.9-21.4 7.1-15 14-30.1 20.9-45.2 2.1-4.6 5-6.4 10-4.7 4.9 1.7 9.9 2.9 14.8 4.6 7.9 2.7 11.5 7.6 11.6 16.2 0.1 23.6 0.1 47.3 0 70.9-0.1 33.3-24.1 58.3-54.4 61-25.2 2.2-50.4 5-75.6 7.5-14.6 1.4-29.1 3.2-43.7 4.2-25 1.6-46.9-14.3-53.9-38.3-2.2-7.4-1.8-15.6-1.8-23.5-0.1-41.8-0.6-83.6 0.5-125.4 0.5-17.5 11-30.9 25.7-40.5 18.7-12.3 38.1-10.5 58.5-4.2 40.5 12.4 81.3 23.7 121.9 35.6 2.5 0.7 4.3 3.7 6.4 5.6-2.6 1.2-5.5 3.9-7.7 3.4-10.4-2.1-20.7-5-31-7.9-31.3-8.8-62.4-18.1-93.8-26.5-21.1-5.6-45 13.2-44.3 35.9 0.9 28.1-0.2 56.2-0.3 84.3 0 14.2 0.3 28.4 0.6 42.5 0.4 15.2 14.7 30.4 29.8 29.9 21.1-0.8 42.1-3 63.1-4.9 12.8-1.1 25.6-3.7 38.4-3.7 25.5-0.1 47.1-18.3 48.1-43 0.5-13.9 0.7-27.8 0.7-41.8 0-6.9-0.8-13.8-1.3-20.7-0.8-0.1-1.7-0.4-2.5-0.7z"
    fill="#FFFFFF"
  ></path>
</svg>
